<svg width="192" height="156" viewBox="0 0 192 156" fill="none" xmlns="http://www.w3.org/2000/svg">
<path d="M86.7686 6.62461C116.783 9.5379 140.555 30.807 148.279 58.2606C140.764 35.0257 120.142 17.2896 94.3752 14.7699C72.4491 12.6386 52.0598 22.0351 39.1639 38.0182C51.0398 25.2846 68.4617 18.0462 87.0659 19.8532C113.13 22.3933 133.424 41.8958 138.234 66.3839C133.475 45.564 115.918 29.1333 93.5612 26.9548C75.8791 25.2507 59.4163 32.8369 49.0064 45.7329C58.5923 35.4666 72.6433 29.6113 87.6739 31.0721C113.361 33.5767 132.148 56.4873 129.638 82.2792C127.13 108.061 104.273 126.93 78.5948 124.439C66.0939 123.206 55.2484 117.177 47.6655 108.311C55.9576 119.53 68.7353 127.293 83.6543 128.72C108.014 131.113 130.033 115.831 137.14 93.3223C129.722 119.953 104.211 138.267 75.8216 135.511C60.3486 134.008 46.9004 126.513 37.5224 115.563C47.7701 129.429 63.6316 139.057 82.1042 140.861C111.892 143.746 138.808 125.361 147.992 98.0848C138.447 130.141 107.379 152.04 72.9472 148.691C53.9564 146.841 37.4244 137.634 25.9032 124.152C38.5087 141.219 57.9707 153.044 80.6619 155.255C123.295 159.394 161.222 128.09 165.377 85.319C169.535 42.5562 138.352 4.51185 95.7229 0.369168C68.803 -2.25358 43.7744 9.28956 27.9433 28.9156C42.5213 13.2802 63.9087 4.39702 86.7686 6.62461Z" fill="black"/>
<path d="M8.85625 81.4752H12.1628V83.7872H7.31204L5.00009 81.4752V74.5219L7.31204 72.21H8.85625V81.4752ZM10.8977 77.3661H16.1934V83.7872H12.7735V79.6606H10.8977V77.3661ZM9.46695 74.5219V72.21H14.1694L16.1934 74.5219V75.6823H12.3372V74.5219H9.46695ZM18.0604 83.7872V72.21H21.9166V83.7872H18.0604ZM22.5273 74.5219V72.21H26.9331L29.2537 74.5219V77.9942L27.474 79.774L27.3518 79.5297L23.7312 80.0095L23.8708 80.3149H22.5273V78.0727H25.4238V74.5219H22.5273ZM29.6463 83.7872H25.5285L23.8708 80.3149H26.9331L27.474 79.774L29.6463 83.7872ZM38.6237 82.5221H34.8373L35.6399 80.2276H37.7338L34.6366 72.21H38.3968L43.012 83.7872H39.1122L38.6237 82.5221ZM33.8078 83.7872H30.0825L34.2179 72.7334L35.9278 77.3312L33.8078 83.7872ZM44.0938 83.7872V72.21H47.8802V83.7872H44.0938ZM48.4909 74.5219V72.21H52.8182L55.1301 74.5219V78.4915L52.8182 80.8122H48.4909V78.4915H51.2914V74.5219H48.4909ZM56.8139 83.7872V72.21H60.6003V83.7872H56.8139ZM61.211 74.5219V72.21H65.5382L67.8502 74.5219V78.4915L65.5382 80.8122H61.211V78.4915H64.0115V74.5219H61.211ZM69.5514 83.7872V72.21H73.4076V83.7872H69.5514ZM74.0183 83.7872V81.4752H75.9289V80.0095H79.4273V83.7872H74.0183ZM80.4307 81.3182H81.591V74.6702H80.4307V72.21H86.6075V74.6702H85.4471V81.3182H86.6075V83.7872H80.4307V81.3182ZM99.5893 83.7872H95.4888L88.4745 72.21H92.5487L99.5893 83.7872ZM88.4745 83.7872V73.3092L91.8333 78.8143V83.7872H88.4745ZM99.5893 72.21V82.6879L96.2304 77.1567V72.21H99.5893ZM105.469 81.4752H108.776V83.7872H103.925L101.613 81.4752V74.5219L103.925 72.21H105.469V81.4752ZM107.511 77.3661H112.807V83.7872H109.387V79.6606H107.511V77.3661ZM106.08 74.5219V72.21H110.783L112.807 74.5219V75.6823H108.95V74.5219H106.08ZM122.979 83.7872H121.444L119.123 81.4752V74.5219L121.444 72.21H122.979V83.7872ZM123.59 74.5219V72.21H127.699L130.011 74.5219V76.8513H126.155V74.5219H123.59ZM123.59 83.7872V81.4752H126.155V79.7827H130.011V81.4752L127.699 83.7872H123.59ZM131.686 81.3182H132.846V74.6702H131.686V72.21H137.863V74.6702H136.702V81.3182H137.863V83.7872H131.686V81.3182ZM139.73 83.7872V72.21H143.586V83.7872H139.73ZM144.197 74.5219V72.21H148.602L150.923 74.5219V77.9942L149.143 79.774L149.021 79.5297L145.401 80.0095L145.54 80.3149H144.197V78.0727H147.093V74.5219H144.197ZM151.316 83.7872H147.198L145.54 80.3149H148.602L149.143 79.774L151.316 83.7872ZM156.376 83.7872H154.84L152.52 81.4752V74.5219L154.84 72.21H156.376V83.7872ZM156.987 74.5219V72.21H161.096L163.408 74.5219V76.8513H159.551V74.5219H156.987ZM156.987 83.7872V81.4752H159.551V79.7827H163.408V81.4752L161.096 83.7872H156.987ZM165.257 83.7872V72.21H169.113V83.7872H165.257ZM169.724 83.7872V81.4752H171.635V80.0095H175.133V83.7872H169.724ZM180.167 79.0324V83.7872H176.311V72.21H180.167V76.799H183.857V79.0324H180.167ZM180.778 74.4521V72.21H186.806V75.5601H183.177V74.4521H180.778ZM180.778 83.7872V81.4752H182.95V80.3149H186.806V83.7872H180.778Z" fill="black" stroke="white" stroke-width="9" stroke-linecap="round" stroke-linejoin="round"/>
<path d="M8.85616 81.4752H12.1627V83.7872H7.31195L5 81.4752V74.5219L7.31195 72.21H8.85616V81.4752ZM10.8976 77.366H16.1933V83.7872H12.7734V79.6606H10.8976V77.366ZM9.46686 74.5219V72.21H14.1693L16.1933 74.5219V75.6823H12.3372V74.5219H9.46686ZM18.0603 83.7872V72.21H21.9165V83.7872H18.0603ZM22.5272 74.5219V72.21H26.933L29.2537 74.5219V77.9942L27.4739 79.774L27.3518 79.5297L23.7312 80.0095L23.8707 80.3149H22.5272V78.0727H25.4237V74.5219H22.5272ZM29.6463 83.7872H25.5284L23.8707 80.3149H26.933L27.4739 79.774L29.6463 83.7872ZM38.6236 82.5221H34.8372L35.6399 80.2276H37.7337L34.6366 72.21H38.3968L43.0119 83.7872H39.1121L38.6236 82.5221ZM33.8078 83.7872H30.0825L34.2178 72.7334L35.9278 77.3311L33.8078 83.7872ZM44.0937 83.7872V72.21H47.8801V83.7872H44.0937ZM48.4908 74.5219V72.21H52.8181L55.1301 74.5219V78.4915L52.8181 80.8122H48.4908V78.4915H51.2913V74.5219H48.4908ZM56.8139 83.7872V72.21H60.6002V83.7872H56.8139ZM61.2109 74.5219V72.21H65.5382L67.8501 74.5219V78.4915L65.5382 80.8122H61.2109V78.4915H64.0114V74.5219H61.2109ZM69.5514 83.7872V72.21H73.4075V83.7872H69.5514ZM74.0183 83.7872V81.4752H75.9289V80.0095H79.4273V83.7872H74.0183ZM80.4306 81.3182H81.591V74.6702H80.4306V72.21H86.6075V74.6702H85.4471V81.3182H86.6075V83.7872H80.4306V81.3182ZM99.5893 83.7872H95.4888L88.4745 72.21H92.5487L99.5893 83.7872ZM88.4745 83.7872V73.3092L91.8333 78.8143V83.7872H88.4745ZM99.5893 72.21V82.6879L96.2304 77.1567V72.21H99.5893ZM105.469 81.4752H108.776V83.7872H103.925L101.613 81.4752V74.5219L103.925 72.21H105.469V81.4752ZM107.511 77.366H112.807V83.7872H109.387V79.6606H107.511V77.366ZM106.08 74.5219V72.21H110.783L112.807 74.5219V75.6823H108.95V74.5219H106.08ZM122.979 83.7872H121.444L119.123 81.4752V74.5219L121.444 72.21H122.979V83.7872ZM123.59 74.5219V72.21H127.699L130.011 74.5219V76.8513H126.155V74.5219H123.59ZM123.59 83.7872V81.4752H126.155V79.7827H130.011V81.4752L127.699 83.7872H123.59ZM131.686 81.3182H132.846V74.6702H131.686V72.21H137.863V74.6702H136.703V81.3182H137.863V83.7872H131.686V81.3182ZM139.73 83.7872V72.21H143.586V83.7872H139.73ZM144.197 74.5219V72.21H148.603L150.923 74.5219V77.9942L149.143 79.774L149.021 79.5297L145.401 80.0095L145.54 80.3149H144.197V78.0727H147.093V74.5219H144.197ZM151.316 83.7872H147.198L145.54 80.3149H148.603L149.143 79.774L151.316 83.7872ZM156.376 83.7872H154.84L152.52 81.4752V74.5219L154.84 72.21H156.376V83.7872ZM156.987 74.5219V72.21H161.096L163.408 74.5219V76.8513H159.552V74.5219H156.987ZM156.987 83.7872V81.4752H159.552V79.7827H163.408V81.4752L161.096 83.7872H156.987ZM165.257 83.7872V72.21H169.113V83.7872H165.257ZM169.724 83.7872V81.4752H171.635V80.0095H175.133V83.7872H169.724ZM180.167 79.0324V83.7872H176.311V72.21H180.167V76.799H183.858V79.0324H180.167ZM180.778 74.4521V72.21H186.806V75.5601H183.177V74.4521H180.778ZM180.778 83.7872V81.4752H182.95V80.3149H186.806V83.7872H180.778Z" fill="black"/>
</svg>
