<svg width="192" height="156" viewBox="0 0 192 156" fill="none" xmlns="http://www.w3.org/2000/svg">
<path d="M86.9184 6.7703C116.932 9.68359 140.704 30.9527 148.429 58.4063C140.914 35.1714 120.291 17.4353 94.525 14.9156C72.5989 12.7843 52.2096 22.1808 39.3137 38.1639C51.1896 25.4303 68.6115 18.1919 87.2157 19.9989C113.279 22.539 133.574 42.0415 138.384 66.5296C133.625 45.7097 116.068 29.279 93.711 27.1005C76.0289 25.3964 59.5661 32.9826 49.1562 45.8786C58.7421 35.6123 72.7931 29.757 87.8237 31.2178C113.511 33.7224 132.297 56.633 129.788 82.4249C127.28 108.206 104.423 127.076 78.7446 124.585C66.2437 123.352 55.3982 117.323 47.8153 108.456C56.1074 119.675 68.8851 127.439 83.8041 128.866C108.164 131.259 130.183 115.977 137.289 93.468C129.872 120.099 104.361 138.413 75.9714 135.657C60.4984 134.154 47.0502 126.659 37.6722 115.708C47.9199 129.575 63.7814 139.203 82.254 141.007C112.041 143.891 138.958 125.507 148.142 98.2305C138.596 130.286 107.529 152.185 73.097 148.836C54.1062 146.987 37.5742 137.78 26.053 124.298C38.6585 141.365 58.1205 153.19 80.8117 155.401C123.444 159.54 161.372 128.236 165.527 85.4647C169.685 42.7019 138.502 4.65754 95.8727 0.514859C68.9528 -2.10789 43.9242 9.43525 28.0931 29.0613C42.6711 13.4259 64.0585 4.54271 86.9184 6.7703Z" fill="white"/>
<path d="M8.95305 81.4752H12.2596V83.7872H7.40884L5.09689 81.4752V74.5219L7.40884 72.21H8.95305V81.4752ZM10.9945 77.3661H16.2902V83.7872H12.8703V79.6606H10.9945V77.3661ZM9.56375 74.5219V72.21H14.2662L16.2902 74.5219V75.6823H12.4341V74.5219H9.56375ZM18.1572 83.7872V72.21H22.0134V83.7872H18.1572ZM22.6241 74.5219V72.21H27.0299L29.3505 74.5219V77.9942L27.5708 79.774L27.4486 79.5297L23.828 80.0095L23.9676 80.3149H22.6241V78.0727H25.5206V74.5219H22.6241ZM29.7431 83.7872H25.6253L23.9676 80.3149H27.0299L27.5708 79.774L29.7431 83.7872ZM38.7205 82.5221H34.9341L35.7367 80.2276H37.8306L34.7334 72.21H38.4936L43.1088 83.7872H39.209L38.7205 82.5221ZM33.9046 83.7872H30.1793L34.3147 72.7334L36.0246 77.3312L33.9046 83.7872ZM44.1906 83.7872V72.21H47.977V83.7872H44.1906ZM48.5877 74.5219V72.21H52.915L55.2269 74.5219V78.4915L52.915 80.8122H48.5877V78.4915H51.3882V74.5219H48.5877ZM56.9107 83.7872V72.21H60.6971V83.7872H56.9107ZM61.3078 74.5219V72.21H65.635L67.947 74.5219V78.4915L65.635 80.8122H61.3078V78.4915H64.1083V74.5219H61.3078ZM69.6482 83.7872V72.21H73.5044V83.7872H69.6482ZM74.1151 83.7872V81.4752H76.0257V80.0095H79.5241V83.7872H74.1151ZM80.5275 81.3182H81.6878V74.6702H80.5275V72.21H86.7043V74.6702H85.5439V81.3182H86.7043V83.7872H80.5275V81.3182ZM99.6861 83.7872H95.5856L88.5713 72.21H92.6455L99.6861 83.7872ZM88.5713 83.7872V73.3092L91.9301 78.8143V83.7872H88.5713ZM99.6861 72.21V82.6879L96.3272 77.1567V72.21H99.6861ZM105.566 81.4752H108.873V83.7872H104.022L101.71 81.4752V74.5219L104.022 72.21H105.566V81.4752ZM107.608 77.3661H112.903V83.7872H109.483V79.6606H107.608V77.3661ZM106.177 74.5219V72.21H110.879L112.903 74.5219V75.6823H109.047V74.5219H106.177ZM123.076 83.7872H121.54L119.22 81.4752V74.5219L121.54 72.21H123.076V83.7872ZM123.687 74.5219V72.21H127.796L130.108 74.5219V76.8513H126.252V74.5219H123.687ZM123.687 83.7872V81.4752H126.252V79.7827H130.108V81.4752L127.796 83.7872H123.687ZM131.783 81.3182H132.943V74.6702H131.783V72.21H137.96V74.6702H136.799V81.3182H137.96V83.7872H131.783V81.3182ZM139.827 83.7872V72.21H143.683V83.7872H139.827ZM144.293 74.5219V72.21H148.699L151.02 74.5219V77.9942L149.24 79.774L149.118 79.5297L145.497 80.0095L145.637 80.3149H144.293V78.0727H147.19V74.5219H144.293ZM151.413 83.7872H147.295L145.637 80.3149H148.699L149.24 79.774L151.413 83.7872ZM156.473 83.7872H154.937L152.616 81.4752V74.5219L154.937 72.21H156.473V83.7872ZM157.083 74.5219V72.21H161.193L163.504 74.5219V76.8513H159.648V74.5219H157.083ZM157.083 83.7872V81.4752H159.648V79.7827H163.504V81.4752L161.193 83.7872H157.083ZM165.354 83.7872V72.21H169.21V83.7872H165.354ZM169.821 83.7872V81.4752H171.732V80.0095H175.23V83.7872H169.821ZM180.264 79.0324V83.7872H176.408V72.21H180.264V76.799H183.954V79.0324H180.264ZM180.875 74.4521V72.21H186.903V75.5601H183.274V74.4521H180.875ZM180.875 83.7872V81.4752H183.047V80.3149H186.903V83.7872H180.875Z" fill="white" stroke="#5F6670" stroke-width="9" stroke-linecap="round" stroke-linejoin="round"/>
<path d="M8.95296 81.4752H12.2595V83.7872H7.40875L5.0968 81.4752V74.5219L7.40875 72.21H8.95296V81.4752ZM10.9944 77.366H16.2901V83.7872H12.8702V79.6606H10.9944V77.366ZM9.56366 74.5219V72.21H14.2661L16.2901 74.5219V75.6823H12.434V74.5219H9.56366ZM18.1571 83.7872V72.21H22.0133V83.7872H18.1571ZM22.624 74.5219V72.21H27.0298L29.3505 74.5219V77.9942L27.5707 79.774L27.4486 79.5297L23.828 80.0095L23.9675 80.3149H22.624V78.0727H25.5205V74.5219H22.624ZM29.7431 83.7872H25.6252L23.9675 80.3149H27.0298L27.5707 79.774L29.7431 83.7872ZM38.7204 82.5221H34.934L35.7367 80.2276H37.8305L34.7334 72.21H38.4936L43.1087 83.7872H39.209L38.7204 82.5221ZM33.9046 83.7872H30.1793L34.3146 72.7334L36.0246 77.3311L33.9046 83.7872ZM44.1905 83.7872V72.21H47.9769V83.7872H44.1905ZM48.5876 74.5219V72.21H52.9149L55.2269 74.5219V78.4915L52.9149 80.8122H48.5876V78.4915H51.3881V74.5219H48.5876ZM56.9107 83.7872V72.21H60.697V83.7872H56.9107ZM61.3077 74.5219V72.21H65.635L67.9469 74.5219V78.4915L65.635 80.8122H61.3077V78.4915H64.1082V74.5219H61.3077ZM69.6482 83.7872V72.21H73.5043V83.7872H69.6482ZM74.1151 83.7872V81.4752H76.0257V80.0095H79.5241V83.7872H74.1151ZM80.5274 81.3182H81.6878V74.6702H80.5274V72.21H86.7043V74.6702H85.5439V81.3182H86.7043V83.7872H80.5274V81.3182ZM99.6861 83.7872H95.5856L88.5713 72.21H92.6455L99.6861 83.7872ZM88.5713 83.7872V73.3092L91.9301 78.8143V83.7872H88.5713ZM99.6861 72.21V82.6879L96.3272 77.1567V72.21H99.6861ZM105.566 81.4752H108.873V83.7872H104.022L101.71 81.4752V74.5219L104.022 72.21H105.566V81.4752ZM107.608 77.366H112.903V83.7872H109.483V79.6606H107.608V77.366ZM106.177 74.5219V72.21H110.879L112.903 74.5219V75.6823H109.047V74.5219H106.177ZM123.076 83.7872H121.54L119.22 81.4752V74.5219L121.54 72.21H123.076V83.7872ZM123.687 74.5219V72.21H127.796L130.108 74.5219V76.8513H126.252V74.5219H123.687ZM123.687 83.7872V81.4752H126.252V79.7827H130.108V81.4752L127.796 83.7872H123.687ZM131.783 81.3182H132.943V74.6702H131.783V72.21H137.96V74.6702H136.799V81.3182H137.96V83.7872H131.783V81.3182ZM139.827 83.7872V72.21H143.683V83.7872H139.827ZM144.294 74.5219V72.21H148.699L151.02 74.5219V77.9942L149.24 79.774L149.118 79.5297L145.497 80.0095L145.637 80.3149H144.294V78.0727H147.19V74.5219H144.294ZM151.413 83.7872H147.295L145.637 80.3149H148.699L149.24 79.774L151.413 83.7872ZM156.473 83.7872H154.937L152.617 81.4752V74.5219L154.937 72.21H156.473V83.7872ZM157.083 74.5219V72.21H161.193L163.505 74.5219V76.8513H159.648V74.5219H157.083ZM157.083 83.7872V81.4752H159.648V79.7827H163.505V81.4752L161.193 83.7872H157.083ZM165.354 83.7872V72.21H169.21V83.7872H165.354ZM169.821 83.7872V81.4752H171.732V80.0095H175.23V83.7872H169.821ZM180.264 79.0324V83.7872H176.408V72.21H180.264V76.799H183.954V79.0324H180.264ZM180.875 74.4521V72.21H186.903V75.5601H183.274V74.4521H180.875ZM180.875 83.7872V81.4752H183.047V80.3149H186.903V83.7872H180.875Z" fill="white"/>
</svg>
